<svg width="21" height="21" viewBox="0 0 21 21" fill="none" xmlns="http://www.w3.org/2000/svg">
<path d="M18.7467 4.57169C18.8453 4.47311 18.9006 4.33941 18.9006 4.19999C18.9006 4.06058 18.8453 3.92688 18.7467 3.82829C18.6481 3.72971 18.5144 3.67433 18.375 3.67433C18.2356 3.67433 18.1019 3.72971 18.0033 3.82829L16.275 5.55764L15.5967 4.87829C15.4981 4.77971 15.3644 4.72433 15.225 4.72433C15.0856 4.72433 14.9519 4.77971 14.8533 4.87829C14.7547 4.97688 14.6993 5.11058 14.6993 5.24999C14.6993 5.38941 14.7547 5.52311 14.8533 5.62169L15.9033 6.67169C15.952 6.72059 16.01 6.75938 16.0738 6.78584C16.1375 6.81231 16.2059 6.82593 16.275 6.82593C16.344 6.82593 16.4124 6.81231 16.4762 6.78584C16.54 6.75938 16.5979 6.72059 16.6467 6.67169L18.7467 4.57169ZM2.62498 5.24999C2.48574 5.24999 2.3522 5.30531 2.25374 5.40376C2.15529 5.50222 2.09998 5.63576 2.09998 5.77499C2.09998 5.91423 2.15529 6.04777 2.25374 6.14623C2.3522 6.24468 2.48574 6.29999 2.62498 6.29999H12.075C12.2142 6.29999 12.3478 6.24468 12.4462 6.14623C12.5447 6.04777 12.6 5.91423 12.6 5.77499C12.6 5.63576 12.5447 5.50222 12.4462 5.40376C12.3478 5.30531 12.2142 5.24999 12.075 5.24999H2.62498ZM2.62498 10.5C2.48574 10.5 2.3522 10.5553 2.25374 10.6538C2.15529 10.7522 2.09998 10.8858 2.09998 11.025C2.09998 11.1642 2.15529 11.2978 2.25374 11.3962C2.3522 11.4947 2.48574 11.55 2.62498 11.55H12.075C12.2142 11.55 12.3478 11.4947 12.4462 11.3962C12.5447 11.2978 12.6 11.1642 12.6 11.025C12.6 10.8858 12.5447 10.7522 12.4462 10.6538C12.3478 10.5553 12.2142 10.5 12.075 10.5H2.62498ZM2.09998 16.275C2.09998 16.1358 2.15529 16.0022 2.25374 15.9038C2.3522 15.8053 2.48574 15.75 2.62498 15.75H12.075C12.2142 15.75 12.3478 15.8053 12.4462 15.9038C12.5447 16.0022 12.6 16.1358 12.6 16.275C12.6 16.4142 12.5447 16.5478 12.4462 16.6462C12.3478 16.7447 12.2142 16.8 12.075 16.8H2.62498C2.48574 16.8 2.3522 16.7447 2.25374 16.6462C2.15529 16.5478 2.09998 16.4142 2.09998 16.275ZM18.7467 10.3467C18.8453 10.2481 18.9006 10.1144 18.9006 9.97499C18.9006 9.83558 18.8453 9.70188 18.7467 9.60329C18.6481 9.50471 18.5144 9.44933 18.375 9.44933C18.2356 9.44933 18.1019 9.50471 18.0033 9.60329L16.275 11.3326L15.5967 10.6533C15.4981 10.5547 15.3644 10.4993 15.225 10.4993C15.0856 10.4993 14.9519 10.5547 14.8533 10.6533C14.7547 10.7519 14.6993 10.8856 14.6993 11.025C14.6993 11.1644 14.7547 11.2981 14.8533 11.3967L15.9033 12.4467C15.952 12.4956 16.01 12.5344 16.0738 12.5608C16.1375 12.5873 16.2059 12.6009 16.275 12.6009C16.344 12.6009 16.4124 12.5873 16.4762 12.5608C16.54 12.5344 16.5979 12.4956 16.6467 12.4467L18.7467 10.3467ZM18.7467 14.8533C18.7956 14.9021 18.8344 14.96 18.8608 15.0238C18.8873 15.0876 18.9009 15.1559 18.9009 15.225C18.9009 15.294 18.8873 15.3624 18.8608 15.4262C18.8344 15.49 18.7956 15.5479 18.7467 15.5967L16.6467 17.6967C16.5979 17.7456 16.54 17.7844 16.4762 17.8108C16.4124 17.8373 16.344 17.8509 16.275 17.8509C16.2059 17.8509 16.1375 17.8373 16.0738 17.8108C16.01 17.7844 15.952 17.7456 15.9033 17.6967L14.8533 16.6467C14.7547 16.5481 14.6993 16.4144 14.6993 16.275C14.6993 16.1356 14.7547 16.0019 14.8533 15.9033C14.9519 15.8047 15.0856 15.7493 15.225 15.7493C15.3644 15.7493 15.4981 15.8047 15.5967 15.9033L16.275 16.5826L18.0033 14.8533C18.052 14.8044 18.11 14.7656 18.1738 14.7391C18.2375 14.7127 18.3059 14.6991 18.375 14.6991C18.444 14.6991 18.5124 14.7127 18.5762 14.7391C18.64 14.7656 18.6979 14.8044 18.7467 14.8533V14.8533Z" fill="#4C566A"/>
</svg>
